# xmcd
#
# Track frame offsets:
#	150
#	19841
#	30007
#	37820
#	49528
#	62826
#	70486
#	77952
#	85392
#	93058
#	100101
#	106834
#	114159
#	122573
#	139018
#	146443
#	152361
#	159106
#	174520
#	183432
#	190710
#	205866
#	221970
#	239906
#	251245
#
# Disc length: 3444 seconds
#
# Revision: 0
# Processed by: cddbd v1.4PL0 Copyright (c) Steve Scherf et al.
# Submitted via: audiograbber 1.81.03
#
DISCID=470d7219
DTITLE=John Zorn and Bobby Previte - Euclid's Nightmare
DYEAR=2000
DGENRE=Pop
TTITLE0=nega
TTITLE1=oersa
TTITLE2=sdsad
TTITLE3=as
TTITLE4=ds
TTITLE5=sa
TTITLE6=as
TTITLE7=as
TTITLE8=as
TTITLE9=as
TTITLE10=as
TTITLE11=sadasd
TTITLE12=sdf
TTITLE13=sdf
TTITLE14=sdgf
TTITLE15=sdfgd
TTITLE16=fghfu
TTITLE17=tyu
TTITLE18=vc
TTITLE19=a
TTITLE20=rte
TTITLE21=rt
TTITLE22=gj
TTITLE23=tuyi
TTITLE24=yujghgjkh
EXTD=
EXTT0=
EXTT1=
EXTT2=
EXTT3=
EXTT4=
EXTT5=
EXTT6=
EXTT7=
EXTT8=
EXTT9=
EXTT10=
EXTT11=
EXTT12=
EXTT13=
EXTT14=
EXTT15=
EXTT16=
EXTT17=
EXTT18=
EXTT19=
EXTT20=
EXTT21=
EXTT22=
EXTT23=
EXTT24=
PLAYORDER=
